<?xml version="1.0" encoding="UTF-8" standalone="no"?>
<!DOCTYPE svg PUBLIC "-//W3C//DTD SVG 1.1//EN"
 "http://www.w3.org/Graphics/SVG/1.1/DTD/svg11.dtd">
<!-- Generated by graphviz version 2.43.0 (0)
 -->
<!-- Title: G Pages: 1 -->
<svg width="887pt" height="470pt"
 viewBox="0.00 0.00 887.20 470.20" xmlns="http://www.w3.org/2000/svg" xmlns:xlink="http://www.w3.org/1999/xlink">
<g id="graph0" class="graph" transform="scale(1 1) rotate(0) translate(21.6 448.6)">
<title>G</title>
<polygon fill="#111111" stroke="transparent" points="-21.6,21.6 -21.6,-448.6 865.6,-448.6 865.6,21.6 -21.6,21.6"/>
<!-- components/Button/Button.stories.tsx -->
<g id="node1" class="node">
<title>components/Button/Button.stories.tsx</title>
<path fill="none" stroke="#c6c5fe" d="M233.33,-64C233.33,-64 7.67,-64 7.67,-64 3.83,-64 0,-60.17 0,-56.33 0,-56.33 0,-48.67 0,-48.67 0,-44.83 3.83,-41 7.67,-41 7.67,-41 233.33,-41 233.33,-41 237.17,-41 241,-44.83 241,-48.67 241,-48.67 241,-56.33 241,-56.33 241,-60.17 237.17,-64 233.33,-64"/>
<text text-anchor="middle" x="120.5" y="-48.8" font-family="Arial" font-size="14.00" fill="#c6c5fe">components/Button/Button.stories.tsx</text>
</g>
<!-- components/Button/Button.tsx -->
<g id="node2" class="node">
<title>components/Button/Button.tsx</title>
<path fill="none" stroke="#cfffac" d="M509.83,-44C509.83,-44 328.17,-44 328.17,-44 324.33,-44 320.5,-40.17 320.5,-36.33 320.5,-36.33 320.5,-28.67 320.5,-28.67 320.5,-24.83 324.33,-21 328.17,-21 328.17,-21 509.83,-21 509.83,-21 513.67,-21 517.5,-24.83 517.5,-28.67 517.5,-28.67 517.5,-36.33 517.5,-36.33 517.5,-40.17 513.67,-44 509.83,-44"/>
<text text-anchor="middle" x="419" y="-28.8" font-family="Arial" font-size="14.00" fill="#cfffac">components/Button/Button.tsx</text>
</g>
<!-- components/Button/Button.stories.tsx&#45;&gt;components/Button/Button.tsx -->
<g id="edge1" class="edge">
<title>components/Button/Button.stories.tsx&#45;&gt;components/Button/Button.tsx</title>
<path fill="none" stroke="#757575" d="M241.24,-44.42C263.96,-42.89 287.61,-41.3 309.94,-39.79"/>
<polygon fill="#757575" stroke="#757575" points="310.36,-43.27 320.1,-39.1 309.88,-36.28 310.36,-43.27"/>
</g>
<!-- components/Navigation/Navigation.tsx -->
<g id="node3" class="node">
<title>components/Navigation/Navigation.tsx</title>
<path fill="none" stroke="#cfffac" d="M836.33,-126C836.33,-126 604.67,-126 604.67,-126 600.83,-126 597,-122.17 597,-118.33 597,-118.33 597,-110.67 597,-110.67 597,-106.83 600.83,-103 604.67,-103 604.67,-103 836.33,-103 836.33,-103 840.17,-103 844,-106.83 844,-110.67 844,-110.67 844,-118.33 844,-118.33 844,-122.17 840.17,-126 836.33,-126"/>
<text text-anchor="middle" x="720.5" y="-110.8" font-family="Arial" font-size="14.00" fill="#cfffac">components/Navigation/Navigation.tsx</text>
</g>
<!-- components/ProductCards/ProductCards.tsx -->
<g id="node4" class="node">
<title>components/ProductCards/ProductCards.tsx</title>
<path fill="none" stroke="#c6c5fe" d="M553.33,-344C553.33,-344 284.67,-344 284.67,-344 280.83,-344 277,-340.17 277,-336.33 277,-336.33 277,-328.67 277,-328.67 277,-324.83 280.83,-321 284.67,-321 284.67,-321 553.33,-321 553.33,-321 557.17,-321 561,-324.83 561,-328.67 561,-328.67 561,-336.33 561,-336.33 561,-340.17 557.17,-344 553.33,-344"/>
<text text-anchor="middle" x="419" y="-328.8" font-family="Arial" font-size="14.00" fill="#c6c5fe">components/ProductCards/ProductCards.tsx</text>
</g>
<!-- types/app&#45;types.d.ts -->
<g id="node5" class="node">
<title>types/app&#45;types.d.ts</title>
<path fill="none" stroke="#cfffac" d="M781.33,-266C781.33,-266 659.67,-266 659.67,-266 655.83,-266 652,-262.17 652,-258.33 652,-258.33 652,-250.67 652,-250.67 652,-246.83 655.83,-243 659.67,-243 659.67,-243 781.33,-243 781.33,-243 785.17,-243 789,-246.83 789,-250.67 789,-250.67 789,-258.33 789,-258.33 789,-262.17 785.17,-266 781.33,-266"/>
<text text-anchor="middle" x="720.5" y="-250.8" font-family="Arial" font-size="14.00" fill="#cfffac">types/app&#45;types.d.ts</text>
</g>
<!-- components/ProductCards/ProductCards.tsx&#45;&gt;types/app&#45;types.d.ts -->
<g id="edge2" class="edge">
<title>components/ProductCards/ProductCards.tsx&#45;&gt;types/app&#45;types.d.ts</title>
<path fill="none" stroke="#757575" d="M492.86,-321C514.89,-317 539.05,-312.1 561,-306.5 601.64,-296.14 647.03,-280.86 678.78,-269.54"/>
<polygon fill="#757575" stroke="#757575" points="680.36,-272.69 688.59,-266.02 677.99,-266.1 680.36,-272.69"/>
</g>
<!-- lib/aes.ts -->
<g id="node6" class="node">
<title>lib/aes.ts</title>
<path fill="none" stroke="#cfffac" d="M147.83,-345C147.83,-345 93.17,-345 93.17,-345 89.33,-345 85.5,-341.17 85.5,-337.33 85.5,-337.33 85.5,-329.67 85.5,-329.67 85.5,-325.83 89.33,-322 93.17,-322 93.17,-322 147.83,-322 147.83,-322 151.67,-322 155.5,-325.83 155.5,-329.67 155.5,-329.67 155.5,-337.33 155.5,-337.33 155.5,-341.17 151.67,-345 147.83,-345"/>
<text text-anchor="middle" x="120.5" y="-329.8" font-family="Arial" font-size="14.00" fill="#cfffac">lib/aes.ts</text>
</g>
<!-- lib/api.ts -->
<g id="node7" class="node">
<title>lib/api.ts</title>
<path fill="none" stroke="#c6c5fe" d="M444.33,-226C444.33,-226 393.67,-226 393.67,-226 389.83,-226 386,-222.17 386,-218.33 386,-218.33 386,-210.67 386,-210.67 386,-206.83 389.83,-203 393.67,-203 393.67,-203 444.33,-203 444.33,-203 448.17,-203 452,-206.83 452,-210.67 452,-210.67 452,-218.33 452,-218.33 452,-222.17 448.17,-226 444.33,-226"/>
<text text-anchor="middle" x="419" y="-210.8" font-family="Arial" font-size="14.00" fill="#c6c5fe">lib/api.ts</text>
</g>
<!-- lib/api.ts&#45;&gt;types/app&#45;types.d.ts -->
<g id="edge3" class="edge">
<title>lib/api.ts&#45;&gt;types/app&#45;types.d.ts</title>
<path fill="none" stroke="#757575" d="M452.05,-218.78C496.94,-224.78 579.93,-235.86 641.61,-244.1"/>
<polygon fill="#757575" stroke="#757575" points="641.33,-247.59 651.7,-245.45 642.25,-240.65 641.33,-247.59"/>
</g>
<!-- lib/withSession.ts -->
<g id="node8" class="node">
<title>lib/withSession.ts</title>
<path fill="none" stroke="#cfffac" d="M471.33,-185C471.33,-185 366.67,-185 366.67,-185 362.83,-185 359,-181.17 359,-177.33 359,-177.33 359,-169.67 359,-169.67 359,-165.83 362.83,-162 366.67,-162 366.67,-162 471.33,-162 471.33,-162 475.17,-162 479,-165.83 479,-169.67 479,-169.67 479,-177.33 479,-177.33 479,-181.17 475.17,-185 471.33,-185"/>
<text text-anchor="middle" x="419" y="-169.8" font-family="Arial" font-size="14.00" fill="#cfffac">lib/withSession.ts</text>
</g>
<!-- pages/_app.test.tsx -->
<g id="node9" class="node">
<title>pages/_app.test.tsx</title>
<path fill="none" stroke="#c6c5fe" d="M179.83,-105C179.83,-105 61.17,-105 61.17,-105 57.33,-105 53.5,-101.17 53.5,-97.33 53.5,-97.33 53.5,-89.67 53.5,-89.67 53.5,-85.83 57.33,-82 61.17,-82 61.17,-82 179.83,-82 179.83,-82 183.67,-82 187.5,-85.83 187.5,-89.67 187.5,-89.67 187.5,-97.33 187.5,-97.33 187.5,-101.17 183.67,-105 179.83,-105"/>
<text text-anchor="middle" x="120.5" y="-89.8" font-family="Arial" font-size="14.00" fill="#c6c5fe">pages/_app.test.tsx</text>
</g>
<!-- pages/_app.tsx -->
<g id="node10" class="node">
<title>pages/_app.tsx</title>
<path fill="none" stroke="#c6c5fe" d="M465.33,-105C465.33,-105 372.67,-105 372.67,-105 368.83,-105 365,-101.17 365,-97.33 365,-97.33 365,-89.67 365,-89.67 365,-85.83 368.83,-82 372.67,-82 372.67,-82 465.33,-82 465.33,-82 469.17,-82 473,-85.83 473,-89.67 473,-89.67 473,-97.33 473,-97.33 473,-101.17 469.17,-105 465.33,-105"/>
<text text-anchor="middle" x="419" y="-89.8" font-family="Arial" font-size="14.00" fill="#c6c5fe">pages/_app.tsx</text>
</g>
<!-- pages/_app.test.tsx&#45;&gt;pages/_app.tsx -->
<g id="edge4" class="edge">
<title>pages/_app.test.tsx&#45;&gt;pages/_app.tsx</title>
<path fill="none" stroke="#757575" d="M187.67,-93.5C237.54,-93.5 305.52,-93.5 354.68,-93.5"/>
<polygon fill="#757575" stroke="#757575" points="354.87,-97 364.87,-93.5 354.87,-90 354.87,-97"/>
</g>
<!-- pages/_app.tsx&#45;&gt;components/Navigation/Navigation.tsx -->
<g id="edge5" class="edge">
<title>pages/_app.tsx&#45;&gt;components/Navigation/Navigation.tsx</title>
<path fill="none" stroke="#757575" d="M473.2,-97.23C504.89,-99.45 546.64,-102.38 586.74,-105.19"/>
<polygon fill="#757575" stroke="#757575" points="586.67,-108.69 596.89,-105.9 587.16,-101.71 586.67,-108.69"/>
</g>
<!-- styles/tailwind.css -->
<g id="node11" class="node">
<title>styles/tailwind.css</title>
<path fill="none" stroke="#cfffac" d="M774.83,-85C774.83,-85 666.17,-85 666.17,-85 662.33,-85 658.5,-81.17 658.5,-77.33 658.5,-77.33 658.5,-69.67 658.5,-69.67 658.5,-65.83 662.33,-62 666.17,-62 666.17,-62 774.83,-62 774.83,-62 778.67,-62 782.5,-65.83 782.5,-69.67 782.5,-69.67 782.5,-77.33 782.5,-77.33 782.5,-81.17 778.67,-85 774.83,-85"/>
<text text-anchor="middle" x="720.5" y="-69.8" font-family="Arial" font-size="14.00" fill="#cfffac">styles/tailwind.css</text>
</g>
<!-- pages/_app.tsx&#45;&gt;styles/tailwind.css -->
<g id="edge6" class="edge">
<title>pages/_app.tsx&#45;&gt;styles/tailwind.css</title>
<path fill="none" stroke="#757575" d="M473.2,-89.95C521.92,-86.69 594.4,-81.85 648.13,-78.27"/>
<polygon fill="#757575" stroke="#757575" points="648.53,-81.75 658.28,-77.59 648.07,-74.76 648.53,-81.75"/>
</g>
<!-- pages/api/auth/in.ts -->
<g id="node12" class="node">
<title>pages/api/auth/in.ts</title>
<path fill="none" stroke="#c6c5fe" d="M179.83,-164C179.83,-164 61.17,-164 61.17,-164 57.33,-164 53.5,-160.17 53.5,-156.33 53.5,-156.33 53.5,-148.67 53.5,-148.67 53.5,-144.83 57.33,-141 61.17,-141 61.17,-141 179.83,-141 179.83,-141 183.67,-141 187.5,-144.83 187.5,-148.67 187.5,-148.67 187.5,-156.33 187.5,-156.33 187.5,-160.17 183.67,-164 179.83,-164"/>
<text text-anchor="middle" x="120.5" y="-148.8" font-family="Arial" font-size="14.00" fill="#c6c5fe">pages/api/auth/in.ts</text>
</g>
<!-- pages/api/auth/in.ts&#45;&gt;types/app&#45;types.d.ts -->
<g id="edge9" class="edge">
<title>pages/api/auth/in.ts&#45;&gt;types/app&#45;types.d.ts</title>
<path fill="none" stroke="#757575" d="M187.55,-141.14C275.01,-128.63 433.07,-114.89 561,-152.5 616.72,-168.88 671.36,-211.57 699.64,-236.22"/>
<polygon fill="#757575" stroke="#757575" points="697.42,-238.93 707.22,-242.95 702.06,-233.69 697.42,-238.93"/>
</g>
<!-- pages/api/auth/in.ts&#45;&gt;lib/api.ts -->
<g id="edge7" class="edge">
<title>pages/api/auth/in.ts&#45;&gt;lib/api.ts</title>
<path fill="none" stroke="#757575" d="M187.72,-159.21C205.36,-162.17 224.19,-166.42 241,-172.5 258.42,-178.8 259.52,-187.36 277,-193.5 309.02,-204.75 347.21,-209.98 375.76,-212.4"/>
<polygon fill="#757575" stroke="#757575" points="375.57,-215.9 385.81,-213.17 376.11,-208.92 375.57,-215.9"/>
</g>
<!-- pages/api/auth/in.ts&#45;&gt;lib/withSession.ts -->
<g id="edge8" class="edge">
<title>pages/api/auth/in.ts&#45;&gt;lib/withSession.ts</title>
<path fill="none" stroke="#757575" d="M187.67,-157.19C235.47,-160.57 299.9,-165.14 348.46,-168.57"/>
<polygon fill="#757575" stroke="#757575" points="348.35,-172.08 358.57,-169.29 348.84,-165.09 348.35,-172.08"/>
</g>
<!-- pages/api/health.ts -->
<g id="node13" class="node">
<title>pages/api/health.ts</title>
<path fill="none" stroke="#cfffac" d="M177.83,-386C177.83,-386 63.17,-386 63.17,-386 59.33,-386 55.5,-382.17 55.5,-378.33 55.5,-378.33 55.5,-370.67 55.5,-370.67 55.5,-366.83 59.33,-363 63.17,-363 63.17,-363 177.83,-363 177.83,-363 181.67,-363 185.5,-366.83 185.5,-370.67 185.5,-370.67 185.5,-378.33 185.5,-378.33 185.5,-382.17 181.67,-386 177.83,-386"/>
<text text-anchor="middle" x="120.5" y="-370.8" font-family="Arial" font-size="14.00" fill="#cfffac">pages/api/health.ts</text>
</g>
<!-- pages/auth/in.tsx -->
<g id="node14" class="node">
<title>pages/auth/in.tsx</title>
<path fill="none" stroke="#c6c5fe" d="M172.33,-205C172.33,-205 68.67,-205 68.67,-205 64.83,-205 61,-201.17 61,-197.33 61,-197.33 61,-189.67 61,-189.67 61,-185.83 64.83,-182 68.67,-182 68.67,-182 172.33,-182 172.33,-182 176.17,-182 180,-185.83 180,-189.67 180,-189.67 180,-197.33 180,-197.33 180,-201.17 176.17,-205 172.33,-205"/>
<text text-anchor="middle" x="120.5" y="-189.8" font-family="Arial" font-size="14.00" fill="#c6c5fe">pages/auth/in.tsx</text>
</g>
<!-- pages/auth/in.tsx&#45;&gt;lib/api.ts -->
<g id="edge10" class="edge">
<title>pages/auth/in.tsx&#45;&gt;lib/api.ts</title>
<path fill="none" stroke="#757575" d="M180.08,-197.65C237.71,-201.73 324.3,-207.86 375.58,-211.5"/>
<polygon fill="#757575" stroke="#757575" points="375.44,-214.99 385.66,-212.21 375.93,-208.01 375.44,-214.99"/>
</g>
<!-- pages/auth/in.tsx&#45;&gt;lib/withSession.ts -->
<g id="edge11" class="edge">
<title>pages/auth/in.tsx&#45;&gt;lib/withSession.ts</title>
<path fill="none" stroke="#757575" d="M180.08,-189.55C228.57,-186.28 297.57,-181.62 348.79,-178.17"/>
<polygon fill="#757575" stroke="#757575" points="349.04,-181.66 358.78,-177.49 348.57,-174.68 349.04,-181.66"/>
</g>
<!-- pages/auth/up.tsx -->
<g id="node15" class="node">
<title>pages/auth/up.tsx</title>
<path fill="none" stroke="#cfffac" d="M174.33,-427C174.33,-427 66.67,-427 66.67,-427 62.83,-427 59,-423.17 59,-419.33 59,-419.33 59,-411.67 59,-411.67 59,-407.83 62.83,-404 66.67,-404 66.67,-404 174.33,-404 174.33,-404 178.17,-404 182,-407.83 182,-411.67 182,-411.67 182,-419.33 182,-419.33 182,-423.17 178.17,-427 174.33,-427"/>
<text text-anchor="middle" x="120.5" y="-411.8" font-family="Arial" font-size="14.00" fill="#cfffac">pages/auth/up.tsx</text>
</g>
<!-- pages/brands/[name].tsx -->
<g id="node16" class="node">
<title>pages/brands/[name].tsx</title>
<path fill="none" stroke="#c6c5fe" d="M195.33,-304C195.33,-304 45.67,-304 45.67,-304 41.83,-304 38,-300.17 38,-296.33 38,-296.33 38,-288.67 38,-288.67 38,-284.83 41.83,-281 45.67,-281 45.67,-281 195.33,-281 195.33,-281 199.17,-281 203,-284.83 203,-288.67 203,-288.67 203,-296.33 203,-296.33 203,-300.17 199.17,-304 195.33,-304"/>
<text text-anchor="middle" x="120.5" y="-288.8" font-family="Arial" font-size="14.00" fill="#c6c5fe">pages/brands/[name].tsx</text>
</g>
<!-- pages/brands/[name].tsx&#45;&gt;components/ProductCards/ProductCards.tsx -->
<g id="edge12" class="edge">
<title>pages/brands/[name].tsx&#45;&gt;components/ProductCards/ProductCards.tsx</title>
<path fill="none" stroke="#757575" d="M203.3,-303.54C240.2,-308.51 284.03,-314.43 322.43,-319.61"/>
<polygon fill="#757575" stroke="#757575" points="322.21,-323.11 332.58,-320.98 323.14,-316.17 322.21,-323.11"/>
</g>
<!-- pages/brands/[name].tsx&#45;&gt;types/app&#45;types.d.ts -->
<g id="edge14" class="edge">
<title>pages/brands/[name].tsx&#45;&gt;types/app&#45;types.d.ts</title>
<path fill="none" stroke="#757575" d="M203.08,-287.32C318.65,-279.97 528.55,-266.63 641.9,-259.43"/>
<polygon fill="#757575" stroke="#757575" points="642.14,-262.92 651.9,-258.8 641.69,-255.94 642.14,-262.92"/>
</g>
<!-- pages/brands/[name].tsx&#45;&gt;lib/api.ts -->
<g id="edge13" class="edge">
<title>pages/brands/[name].tsx&#45;&gt;lib/api.ts</title>
<path fill="none" stroke="#757575" d="M165.25,-280.99C221.97,-266.07 320.2,-240.23 376.03,-225.54"/>
<polygon fill="#757575" stroke="#757575" points="377.16,-228.86 385.94,-222.93 375.38,-222.09 377.16,-228.86"/>
</g>
<!-- pages/index.tsx -->
<g id="node17" class="node">
<title>pages/index.tsx</title>
<path fill="none" stroke="#c6c5fe" d="M167.83,-23C167.83,-23 73.17,-23 73.17,-23 69.33,-23 65.5,-19.17 65.5,-15.33 65.5,-15.33 65.5,-7.67 65.5,-7.67 65.5,-3.83 69.33,0 73.17,0 73.17,0 167.83,0 167.83,0 171.67,0 175.5,-3.83 175.5,-7.67 175.5,-7.67 175.5,-15.33 175.5,-15.33 175.5,-19.17 171.67,-23 167.83,-23"/>
<text text-anchor="middle" x="120.5" y="-7.8" font-family="Arial" font-size="14.00" fill="#c6c5fe">pages/index.tsx</text>
</g>
<!-- pages/index.tsx&#45;&gt;components/Button/Button.tsx -->
<g id="edge15" class="edge">
<title>pages/index.tsx&#45;&gt;components/Button/Button.tsx</title>
<path fill="none" stroke="#757575" d="M175.54,-15.33C213.12,-17.99 264.49,-21.63 310.28,-24.87"/>
<polygon fill="#757575" stroke="#757575" points="310.04,-28.36 320.26,-25.58 310.53,-21.38 310.04,-28.36"/>
</g>
<!-- pages/vape/[slug].tsx -->
<g id="node18" class="node">
<title>pages/vape/[slug].tsx</title>
<path fill="none" stroke="#c6c5fe" d="M184.33,-246C184.33,-246 56.67,-246 56.67,-246 52.83,-246 49,-242.17 49,-238.33 49,-238.33 49,-230.67 49,-230.67 49,-226.83 52.83,-223 56.67,-223 56.67,-223 184.33,-223 184.33,-223 188.17,-223 192,-226.83 192,-230.67 192,-230.67 192,-238.33 192,-238.33 192,-242.17 188.17,-246 184.33,-246"/>
<text text-anchor="middle" x="120.5" y="-230.8" font-family="Arial" font-size="14.00" fill="#c6c5fe">pages/vape/[slug].tsx</text>
</g>
<!-- pages/vape/[slug].tsx&#45;&gt;types/app&#45;types.d.ts -->
<g id="edge18" class="edge">
<title>pages/vape/[slug].tsx&#45;&gt;types/app&#45;types.d.ts</title>
<path fill="none" stroke="#757575" d="M192.15,-236.86C304.8,-240.63 524.33,-247.97 641.47,-251.89"/>
<polygon fill="#757575" stroke="#757575" points="641.67,-255.4 651.79,-252.24 641.91,-248.4 641.67,-255.4"/>
</g>
<!-- pages/vape/[slug].tsx&#45;&gt;lib/api.ts -->
<g id="edge16" class="edge">
<title>pages/vape/[slug].tsx&#45;&gt;lib/api.ts</title>
<path fill="none" stroke="#757575" d="M192.14,-229.73C249.27,-225.88 327.81,-220.58 375.63,-217.36"/>
<polygon fill="#757575" stroke="#757575" points="375.89,-220.85 385.64,-216.68 375.42,-213.86 375.89,-220.85"/>
</g>
<!-- pages/vape/[slug].tsx&#45;&gt;lib/withSession.ts -->
<g id="edge17" class="edge">
<title>pages/vape/[slug].tsx&#45;&gt;lib/withSession.ts</title>
<path fill="none" stroke="#757575" d="M192.02,-226.12C208.37,-223.08 225.51,-218.99 241,-213.5 258.25,-207.39 259.65,-199.33 277,-193.5 299.76,-185.85 325.55,-181.13 348.79,-178.21"/>
<polygon fill="#757575" stroke="#757575" points="349.39,-181.67 358.92,-177.03 348.58,-174.71 349.39,-181.67"/>
</g>
</g>
</svg>
