<?xml version="1.0" encoding="UTF-8" standalone="no"?>
<!DOCTYPE svg PUBLIC "-//W3C//DTD SVG 1.1//EN"
 "http://www.w3.org/Graphics/SVG/1.1/DTD/svg11.dtd">
<!-- Generated by graphviz version 2.43.0 (0)
 -->
<!-- Title: G Pages: 1 -->
<svg width="764pt" height="393pt"
 viewBox="0.00 0.00 764.20 393.20" xmlns="http://www.w3.org/2000/svg" xmlns:xlink="http://www.w3.org/1999/xlink">
<g id="graph0" class="graph" transform="scale(1 1) rotate(0) translate(21.6 371.6)">
<title>G</title>
<polygon fill="#111111" stroke="transparent" points="-21.6,21.6 -21.6,-371.6 742.6,-371.6 742.6,21.6 -21.6,21.6"/>
<!-- api/api.ts -->
<g id="node1" class="node">
<title>api/api.ts</title>
<path fill="none" stroke="#c6c5fe" d="M446.83,-103C446.83,-103 391.17,-103 391.17,-103 387.33,-103 383.5,-99.17 383.5,-95.33 383.5,-95.33 383.5,-87.67 383.5,-87.67 383.5,-83.83 387.33,-80 391.17,-80 391.17,-80 446.83,-80 446.83,-80 450.67,-80 454.5,-83.83 454.5,-87.67 454.5,-87.67 454.5,-95.33 454.5,-95.33 454.5,-99.17 450.67,-103 446.83,-103"/>
<text text-anchor="middle" x="419" y="-87.8" font-family="Arial" font-size="14.00" fill="#c6c5fe">api/api.ts</text>
</g>
<!-- api/types.ts -->
<g id="node2" class="node">
<title>api/types.ts</title>
<path fill="none" stroke="#cfffac" d="M693.83,-63C693.83,-63 624.17,-63 624.17,-63 620.33,-63 616.5,-59.17 616.5,-55.33 616.5,-55.33 616.5,-47.67 616.5,-47.67 616.5,-43.83 620.33,-40 624.17,-40 624.17,-40 693.83,-40 693.83,-40 697.67,-40 701.5,-43.83 701.5,-47.67 701.5,-47.67 701.5,-55.33 701.5,-55.33 701.5,-59.17 697.67,-63 693.83,-63"/>
<text text-anchor="middle" x="659" y="-47.8" font-family="Arial" font-size="14.00" fill="#cfffac">api/types.ts</text>
</g>
<!-- api/api.ts&#45;&gt;api/types.ts -->
<g id="edge1" class="edge">
<title>api/api.ts&#45;&gt;api/types.ts</title>
<path fill="none" stroke="#757575" d="M454.61,-85.68C494.4,-79 560.13,-67.95 606.07,-60.23"/>
<polygon fill="#757575" stroke="#757575" points="606.85,-63.65 616.13,-58.54 605.69,-56.74 606.85,-63.65"/>
</g>
<!-- components/Button/Button.stories.tsx -->
<g id="node3" class="node">
<title>components/Button/Button.stories.tsx</title>
<path fill="none" stroke="#c6c5fe" d="M233.33,-145C233.33,-145 7.67,-145 7.67,-145 3.83,-145 0,-141.17 0,-137.33 0,-137.33 0,-129.67 0,-129.67 0,-125.83 3.83,-122 7.67,-122 7.67,-122 233.33,-122 233.33,-122 237.17,-122 241,-125.83 241,-129.67 241,-129.67 241,-137.33 241,-137.33 241,-141.17 237.17,-145 233.33,-145"/>
<text text-anchor="middle" x="120.5" y="-129.8" font-family="Arial" font-size="14.00" fill="#c6c5fe">components/Button/Button.stories.tsx</text>
</g>
<!-- components/Button/Button.tsx -->
<g id="node4" class="node">
<title>components/Button/Button.tsx</title>
<path fill="none" stroke="#cfffac" d="M509.83,-145C509.83,-145 328.17,-145 328.17,-145 324.33,-145 320.5,-141.17 320.5,-137.33 320.5,-137.33 320.5,-129.67 320.5,-129.67 320.5,-125.83 324.33,-122 328.17,-122 328.17,-122 509.83,-122 509.83,-122 513.67,-122 517.5,-125.83 517.5,-129.67 517.5,-129.67 517.5,-137.33 517.5,-137.33 517.5,-141.17 513.67,-145 509.83,-145"/>
<text text-anchor="middle" x="419" y="-129.8" font-family="Arial" font-size="14.00" fill="#cfffac">components/Button/Button.tsx</text>
</g>
<!-- components/Button/Button.stories.tsx&#45;&gt;components/Button/Button.tsx -->
<g id="edge2" class="edge">
<title>components/Button/Button.stories.tsx&#45;&gt;components/Button/Button.tsx</title>
<path fill="none" stroke="#757575" d="M241.24,-133.5C263.96,-133.5 287.61,-133.5 309.94,-133.5"/>
<polygon fill="#757575" stroke="#757575" points="310.1,-137 320.1,-133.5 310.1,-130 310.1,-137"/>
</g>
<!-- components/ProductCards/ProductCards.tsx -->
<g id="node5" class="node">
<title>components/ProductCards/ProductCards.tsx</title>
<path fill="none" stroke="#c6c5fe" d="M553.33,-23C553.33,-23 284.67,-23 284.67,-23 280.83,-23 277,-19.17 277,-15.33 277,-15.33 277,-7.67 277,-7.67 277,-3.83 280.83,0 284.67,0 284.67,0 553.33,0 553.33,0 557.17,0 561,-3.83 561,-7.67 561,-7.67 561,-15.33 561,-15.33 561,-19.17 557.17,-23 553.33,-23"/>
<text text-anchor="middle" x="419" y="-7.8" font-family="Arial" font-size="14.00" fill="#c6c5fe">components/ProductCards/ProductCards.tsx</text>
</g>
<!-- components/ProductCards/ProductCards.tsx&#45;&gt;api/types.ts -->
<g id="edge3" class="edge">
<title>components/ProductCards/ProductCards.tsx&#45;&gt;api/types.ts</title>
<path fill="none" stroke="#757575" d="M488.52,-23.02C526.14,-29.34 572.02,-37.05 606.56,-42.85"/>
<polygon fill="#757575" stroke="#757575" points="605.99,-46.31 616.43,-44.51 607.15,-39.4 605.99,-46.31"/>
</g>
<!-- components/Tooltip/Tooltip.tsx -->
<g id="node6" class="node">
<title>components/Tooltip/Tooltip.tsx</title>
<path fill="none" stroke="#cfffac" d="M211.33,-186C211.33,-186 29.67,-186 29.67,-186 25.83,-186 22,-182.17 22,-178.33 22,-178.33 22,-170.67 22,-170.67 22,-166.83 25.83,-163 29.67,-163 29.67,-163 211.33,-163 211.33,-163 215.17,-163 219,-166.83 219,-170.67 219,-170.67 219,-178.33 219,-178.33 219,-182.17 215.17,-186 211.33,-186"/>
<text text-anchor="middle" x="120.5" y="-170.8" font-family="Arial" font-size="14.00" fill="#cfffac">components/Tooltip/Tooltip.tsx</text>
</g>
<!-- lp&#45;items.tsx -->
<g id="node7" class="node">
<title>lp&#45;items.tsx</title>
<path fill="none" stroke="#cfffac" d="M155.83,-227C155.83,-227 85.17,-227 85.17,-227 81.33,-227 77.5,-223.17 77.5,-219.33 77.5,-219.33 77.5,-211.67 77.5,-211.67 77.5,-207.83 81.33,-204 85.17,-204 85.17,-204 155.83,-204 155.83,-204 159.67,-204 163.5,-207.83 163.5,-211.67 163.5,-211.67 163.5,-219.33 163.5,-219.33 163.5,-223.17 159.67,-227 155.83,-227"/>
<text text-anchor="middle" x="120.5" y="-211.8" font-family="Arial" font-size="14.00" fill="#cfffac">lp&#45;items.tsx</text>
</g>
<!-- pages/_app.test.tsx -->
<g id="node8" class="node">
<title>pages/_app.test.tsx</title>
<path fill="none" stroke="#c6c5fe" d="M179.83,-268C179.83,-268 61.17,-268 61.17,-268 57.33,-268 53.5,-264.17 53.5,-260.33 53.5,-260.33 53.5,-252.67 53.5,-252.67 53.5,-248.83 57.33,-245 61.17,-245 61.17,-245 179.83,-245 179.83,-245 183.67,-245 187.5,-248.83 187.5,-252.67 187.5,-252.67 187.5,-260.33 187.5,-260.33 187.5,-264.17 183.67,-268 179.83,-268"/>
<text text-anchor="middle" x="120.5" y="-252.8" font-family="Arial" font-size="14.00" fill="#c6c5fe">pages/_app.test.tsx</text>
</g>
<!-- pages/_app.tsx -->
<g id="node9" class="node">
<title>pages/_app.tsx</title>
<path fill="none" stroke="#c6c5fe" d="M465.33,-268C465.33,-268 372.67,-268 372.67,-268 368.83,-268 365,-264.17 365,-260.33 365,-260.33 365,-252.67 365,-252.67 365,-248.83 368.83,-245 372.67,-245 372.67,-245 465.33,-245 465.33,-245 469.17,-245 473,-248.83 473,-252.67 473,-252.67 473,-260.33 473,-260.33 473,-264.17 469.17,-268 465.33,-268"/>
<text text-anchor="middle" x="419" y="-252.8" font-family="Arial" font-size="14.00" fill="#c6c5fe">pages/_app.tsx</text>
</g>
<!-- pages/_app.test.tsx&#45;&gt;pages/_app.tsx -->
<g id="edge4" class="edge">
<title>pages/_app.test.tsx&#45;&gt;pages/_app.tsx</title>
<path fill="none" stroke="#757575" d="M187.67,-256.5C237.54,-256.5 305.52,-256.5 354.68,-256.5"/>
<polygon fill="#757575" stroke="#757575" points="354.87,-260 364.87,-256.5 354.87,-253 354.87,-260"/>
</g>
<!-- styles/tailwind.css -->
<g id="node10" class="node">
<title>styles/tailwind.css</title>
<path fill="none" stroke="#cfffac" d="M713.33,-268C713.33,-268 604.67,-268 604.67,-268 600.83,-268 597,-264.17 597,-260.33 597,-260.33 597,-252.67 597,-252.67 597,-248.83 600.83,-245 604.67,-245 604.67,-245 713.33,-245 713.33,-245 717.17,-245 721,-248.83 721,-252.67 721,-252.67 721,-260.33 721,-260.33 721,-264.17 717.17,-268 713.33,-268"/>
<text text-anchor="middle" x="659" y="-252.8" font-family="Arial" font-size="14.00" fill="#cfffac">styles/tailwind.css</text>
</g>
<!-- pages/_app.tsx&#45;&gt;styles/tailwind.css -->
<g id="edge5" class="edge">
<title>pages/_app.tsx&#45;&gt;styles/tailwind.css</title>
<path fill="none" stroke="#757575" d="M473.12,-256.5C506.55,-256.5 550.12,-256.5 586.56,-256.5"/>
<polygon fill="#757575" stroke="#757575" points="586.64,-260 596.64,-256.5 586.64,-253 586.64,-260"/>
</g>
<!-- pages/api/health.ts -->
<g id="node11" class="node">
<title>pages/api/health.ts</title>
<path fill="none" stroke="#cfffac" d="M177.83,-309C177.83,-309 63.17,-309 63.17,-309 59.33,-309 55.5,-305.17 55.5,-301.33 55.5,-301.33 55.5,-293.67 55.5,-293.67 55.5,-289.83 59.33,-286 63.17,-286 63.17,-286 177.83,-286 177.83,-286 181.67,-286 185.5,-289.83 185.5,-293.67 185.5,-293.67 185.5,-301.33 185.5,-301.33 185.5,-305.17 181.67,-309 177.83,-309"/>
<text text-anchor="middle" x="120.5" y="-293.8" font-family="Arial" font-size="14.00" fill="#cfffac">pages/api/health.ts</text>
</g>
<!-- pages/brands/[name].tsx -->
<g id="node12" class="node">
<title>pages/brands/[name].tsx</title>
<path fill="none" stroke="#c6c5fe" d="M195.33,-63C195.33,-63 45.67,-63 45.67,-63 41.83,-63 38,-59.17 38,-55.33 38,-55.33 38,-47.67 38,-47.67 38,-43.83 41.83,-40 45.67,-40 45.67,-40 195.33,-40 195.33,-40 199.17,-40 203,-43.83 203,-47.67 203,-47.67 203,-55.33 203,-55.33 203,-59.17 199.17,-63 195.33,-63"/>
<text text-anchor="middle" x="120.5" y="-47.8" font-family="Arial" font-size="14.00" fill="#c6c5fe">pages/brands/[name].tsx</text>
</g>
<!-- pages/brands/[name].tsx&#45;&gt;api/api.ts -->
<g id="edge6" class="edge">
<title>pages/brands/[name].tsx&#45;&gt;api/api.ts</title>
<path fill="none" stroke="#757575" d="M203.3,-62.54C258.17,-69.94 328.34,-79.4 373.24,-85.46"/>
<polygon fill="#757575" stroke="#757575" points="372.87,-88.94 383.25,-86.81 373.81,-82.01 372.87,-88.94"/>
</g>
<!-- pages/brands/[name].tsx&#45;&gt;api/types.ts -->
<g id="edge7" class="edge">
<title>pages/brands/[name].tsx&#45;&gt;api/types.ts</title>
<path fill="none" stroke="#757575" d="M203.27,-51.5C315.24,-51.5 512.98,-51.5 606.39,-51.5"/>
<polygon fill="#757575" stroke="#757575" points="606.44,-55 616.44,-51.5 606.44,-48 606.44,-55"/>
</g>
<!-- pages/brands/[name].tsx&#45;&gt;components/ProductCards/ProductCards.tsx -->
<g id="edge8" class="edge">
<title>pages/brands/[name].tsx&#45;&gt;components/ProductCards/ProductCards.tsx</title>
<path fill="none" stroke="#757575" d="M203.3,-40.46C240.2,-35.49 284.03,-29.57 322.43,-24.39"/>
<polygon fill="#757575" stroke="#757575" points="323.14,-27.83 332.58,-23.02 322.21,-20.89 323.14,-27.83"/>
</g>
<!-- pages/index.tsx -->
<g id="node13" class="node">
<title>pages/index.tsx</title>
<path fill="none" stroke="#c6c5fe" d="M167.83,-104C167.83,-104 73.17,-104 73.17,-104 69.33,-104 65.5,-100.17 65.5,-96.33 65.5,-96.33 65.5,-88.67 65.5,-88.67 65.5,-84.83 69.33,-81 73.17,-81 73.17,-81 167.83,-81 167.83,-81 171.67,-81 175.5,-84.83 175.5,-88.67 175.5,-88.67 175.5,-96.33 175.5,-96.33 175.5,-100.17 171.67,-104 167.83,-104"/>
<text text-anchor="middle" x="120.5" y="-88.8" font-family="Arial" font-size="14.00" fill="#c6c5fe">pages/index.tsx</text>
</g>
<!-- pages/index.tsx&#45;&gt;components/Button/Button.tsx -->
<g id="edge9" class="edge">
<title>pages/index.tsx&#45;&gt;components/Button/Button.tsx</title>
<path fill="none" stroke="#757575" d="M175.54,-99.97C217.1,-105.72 275.54,-113.8 324.63,-120.59"/>
<polygon fill="#757575" stroke="#757575" points="324.25,-124.07 334.64,-121.97 325.21,-117.14 324.25,-124.07"/>
</g>
<!-- pages/vapes/index.tsx -->
<g id="node14" class="node">
<title>pages/vapes/index.tsx</title>
<path fill="none" stroke="#cfffac" d="M187.83,-350C187.83,-350 53.17,-350 53.17,-350 49.33,-350 45.5,-346.17 45.5,-342.33 45.5,-342.33 45.5,-334.67 45.5,-334.67 45.5,-330.83 49.33,-327 53.17,-327 53.17,-327 187.83,-327 187.83,-327 191.67,-327 195.5,-330.83 195.5,-334.67 195.5,-334.67 195.5,-342.33 195.5,-342.33 195.5,-346.17 191.67,-350 187.83,-350"/>
<text text-anchor="middle" x="120.5" y="-334.8" font-family="Arial" font-size="14.00" fill="#cfffac">pages/vapes/index.tsx</text>
</g>
</g>
</svg>
